<svg width="32" height="32" viewBox="0 0 32 32" fill="none" xmlns="http://www.w3.org/2000/svg">
<path d="M21.3333 13.3333L24.7691 11.2719C25.8265 10.6374 26.3553 10.3201 26.7904 10.3607C27.1697 10.396 27.5159 10.592 27.7413 10.8991C28 11.2513 28 11.8679 28 13.1012V18.8988C28 20.132 28 20.7487 27.7413 21.1009C27.5159 21.408 27.1697 21.604 26.7904 21.6393C26.3553 21.6799 25.8265 21.3627 24.7691 20.7281L21.3333 18.6667M8.26667 24H17.0667C18.5601 24 19.3069 24 19.8773 23.7093C20.3791 23.4537 20.7871 23.0457 21.0427 22.544C21.3333 21.9736 21.3333 21.2268 21.3333 19.7333V12.2667C21.3333 10.7732 21.3333 10.0265 21.0427 9.45603C20.7871 8.95425 20.3791 8.54631 19.8773 8.29065C19.3069 8 18.5601 8 17.0667 8H8.26667C6.7732 8 6.02645 8 5.45603 8.29065C4.95425 8.54631 4.54631 8.95425 4.29065 9.45603C4 10.0265 4 10.7732 4 12.2667V19.7333C4 21.2268 4 21.9736 4.29065 22.544C4.54631 23.0457 4.95425 23.4537 5.45603 23.7093C6.02645 24 6.77319 24 8.26667 24Z" stroke="white" stroke-width="2" stroke-linecap="round" stroke-linejoin="round"/>
</svg>
