<svg width="547" height="382" viewBox="0 0 547 382" fill="none" xmlns="http://www.w3.org/2000/svg">
<path d="M273.5 47.75H205.125C167.363 47.75 136.75 69.1285 136.75 95.5C136.75 121.872 167.363 143.25 205.125 143.25M273.5 47.75V143.25M273.5 47.75H341.875C379.639 47.75 410.25 69.1285 410.25 95.5C410.25 121.872 379.639 143.25 341.875 143.25M205.125 143.25H273.5M205.125 143.25C167.363 143.25 136.75 164.628 136.75 191C136.75 217.372 167.363 238.75 205.125 238.75M273.5 143.25H341.875M273.5 143.25V238.75M341.875 143.25C379.639 143.25 410.25 164.628 410.25 191C410.25 217.372 379.639 238.75 341.875 238.75C304.111 238.75 273.5 217.372 273.5 191C273.5 164.628 304.111 143.25 341.875 143.25ZM273.5 238.75H205.125M273.5 238.75V286.5C273.5 312.872 242.889 334.25 205.125 334.25C167.363 334.25 136.75 312.872 136.75 286.5C136.75 260.128 167.363 238.75 205.125 238.75" stroke="white" stroke-width="66.6667" stroke-linecap="round" stroke-linejoin="round"/>
</svg>
