<svg width="32" height="32" viewBox="0 0 32 32" fill="none" xmlns="http://www.w3.org/2000/svg">
<g clip-path="url(#clip0_63_5)">
<path d="M13.3333 0C9.67196 0 6.66667 3.00571 6.66667 6.66531C6.66667 8.63972 7.54252 10.4228 8.92313 11.6473C3.71081 13.5771 0 18.8206 0 24.8894C3.35288e-05 25.3607 0.187403 25.8128 0.520897 26.1461C0.854391 26.4794 1.3067 26.6666 1.77833 26.6667H10.3327C10.6824 25.375 11.2423 24.1733 11.9803 23.1122H3.6974C4.48389 18.1195 8.52708 14.4096 13.3333 14.4096C13.9994 14.4096 14.6501 14.4832 15.2802 14.6193C15.4966 12.4477 17.0363 10.6468 19.0734 10.0373C19.6612 9.04602 20 7.8927 20 6.66531C20 3.00571 16.9947 0 13.3333 0ZM13.3333 3.55448C15.0715 3.55448 16.4433 4.92559 16.4433 6.66531C16.4433 8.40503 15.0715 9.77635 13.3333 9.77635C11.5952 9.77635 10.2232 8.40503 10.2232 6.66531C10.2232 4.92559 11.5952 3.55448 13.3333 3.55448Z" fill="white"/>
<path d="M21.3334 10.6667C18.4043 10.6667 16 13.0713 16 15.999C16 17.5785 16.7007 19.005 17.8052 19.9845C13.6353 21.5284 10.6667 25.7232 10.6667 30.5782C10.6667 30.9553 10.8166 31.3169 11.0834 31.5835C11.3502 31.8502 11.712 32 12.0893 32H21.3334H30.5773C30.9546 32 31.3165 31.8502 31.5833 31.5836C31.8501 31.3169 32 30.9553 32 30.5782C32 25.7232 29.0315 21.5284 24.8616 19.9845C25.9661 19.005 26.6667 17.5785 26.6667 15.999C26.6667 13.0713 24.2625 10.6667 21.3334 10.6667ZM21.3334 13.5103C22.7239 13.5103 23.8213 14.6072 23.8213 15.999C23.8213 17.3908 22.7239 18.4878 21.3334 18.4878C19.9428 18.4878 18.8453 17.3908 18.8453 15.999C18.8453 14.6072 19.9428 13.5103 21.3334 13.5103ZM21.3334 22.1943C25.1784 22.1943 28.4129 25.1622 29.0421 29.1564H21.3334H13.6246C14.2538 25.1622 17.4884 22.1943 21.3334 22.1943Z" fill="white"/>
</g>
<defs>
<clipPath id="clip0_63_5">
<rect width="32" height="32" fill="white"/>
</clipPath>
</defs>
</svg>
